<svg width="921" height="439" viewBox="0 0 921 439" fill="none" xmlns="http://www.w3.org/2000/svg">
<path fill-rule="evenodd" clip-rule="evenodd" d="M814.54 289V350.75L818 355.45H780.65L783.49 350.75H783.58V313.42L781.72 308.28H783.67C783.38 304.584 781.708 301.133 778.986 298.616C776.264 296.099 772.692 294.701 768.985 294.701C765.278 294.701 761.706 296.099 758.984 298.616C756.262 301.133 754.59 304.584 754.3 308.28H756.3L754.44 313.42V350.78H754.53L757.9 355.48H720.59L723.34 350.78V282.11L715.29 275.81H715V275.19H723.34V265H814.54V275.2H822.97V275.82H822.53L814.53 282.12V289H814.54Z" fill="#BD9D7B" fill-opacity="0.2"/>
<path fill-rule="evenodd" clip-rule="evenodd" d="M573.8 200.86V207.16H574.6V208.31H574.33C596.96 222.6 584.27 227.03 586.93 229.87C582.59 229.78 578.24 229.78 573.8 229.87H560.49C562.18 226.77 549.05 222.69 572.49 208.31H572.22V207.16H573.02V201.16H572.49C572.002 201.155 571.526 200.999 571.129 200.715C570.732 200.431 570.432 200.031 570.27 199.57C570.481 199.777 570.731 199.938 571.006 200.045C571.281 200.151 571.575 200.201 571.87 200.19C572.516 200.195 573.138 199.947 573.601 199.498C574.065 199.049 574.334 198.435 574.35 197.79C574.341 197.519 574.284 197.251 574.18 197C574.428 197.204 574.627 197.461 574.764 197.751C574.9 198.042 574.971 198.359 574.97 198.68C574.975 199.104 574.872 199.521 574.671 199.894C574.47 200.267 574.177 200.582 573.82 200.81L573.8 200.86ZM529.62 235.37C529.88 234.84 527.76 234.22 531.62 231.82C535.34 234.22 533.3 234.93 533.75 235.37H529.62ZM529.44 239.45H533.7V237.15H529.44V239.45ZM530.24 238.92H531.04V237.59H530.24V238.92ZM532.19 238.92H532.9V237.59H532.19V238.92ZM531.19 238.92H531.89V237.59H531.19V238.92ZM528.88 236.92H534.29V236.48H528.88V236.92ZM528.88 236.12H534.29V235.68H528.88V236.12ZM528.88 240.2H534.29V239.85H528.88V240.2ZM528.88 240.73H534.29V240.38H528.88V240.73ZM529.32 240.82H533.76V251.82H529.32V240.82ZM533.76 252.54V262.03H529.32V252.54H533.76ZM533.76 262.74V268.6H538.99V241.41L547.78 239.63V268.56H548.13V234.84H549.28V234.48H559.58V231.38H587.26V233.95V234.48H597.9V234.84H598.79V268.56H599.32V239.19L607.84 241.59V268.59H613.61V262.73H617.95V268.59H625.85V259.06H632.95V268.56H642V270.95H505V268.56H514.32V259.06H521.5V268.56H529.31V262.7L533.76 262.74ZM521.16 214.65C520.71 213.85 524.16 212.88 517.88 209.06C511.76 212.79 515.13 213.94 514.42 214.65H521.16ZM521.34 221.31H514.51V217.58H521.34V221.31ZM520.09 220.51H518.94V218.38H520.09V220.51ZM516.9 220.51H515.75V218.38H516.9V220.51ZM518.5 220.51H517.34V218.38H518.5V220.51ZM522.4 217.4H513.53V216.4H522.4V217.4ZM522.4 215.98H513.53V215.06H522.4V215.98ZM522.4 222.46H513.53V221.57H522.4V222.46ZM522.4 223.35H513.53V222.73H522.4V223.35ZM642 276.58H505V271.79H642V276.58ZM521.54 223.48H514.36V241.32H521.54V223.48ZM626.15 214.61C626.68 213.81 623.15 212.84 629.52 209.02C635.64 212.75 632.27 213.9 632.98 214.61H626.15ZM632.89 221.27V217.54H633.89V216.39H625.01V217.54H626.01V221.27H625.01V223.48H625.9V241.32H633V223.48H633.89V221.27H632.89ZM627.3 220.47H628.45V218.34H627.3V220.47ZM630.41 220.47H631.7V218.34H630.46L630.41 220.47ZM628.9 220.47H630.05V218.34H628.9V220.47ZM624.99 216.21H633.87V215.06H624.99V216.21ZM632.99 242.47V257.82H625.89V242.47H632.99ZM561.29 268.56H585.7V236.35H561.3L561.29 268.56ZM617.81 235.37C617.54 234.84 619.67 234.22 615.81 231.82C611.99 234.22 614.12 234.93 613.68 235.37H617.81ZM617.98 239.45H613.7V237.15H617.95L617.98 239.45ZM617.1 238.92H616.39V237.59H617.1V238.92ZM615.23 238.92H614.52V237.59H615.23V238.92ZM616.12 238.92H615.41V237.59H616.12V238.92ZM618.51 236.92H613.1V236.39H618.51V236.92ZM618.51 236.03H613.1V235.59H618.51V236.03ZM618.51 240.11H613.1V239.67H618.51V240.11ZM618.51 240.73H617.98V251.73H613.64V240.73H613.1V240.29H618.51V240.73ZM613.64 252.45V261.94H617.98V252.45H613.64ZM514.36 242.45V257.8H521.54V242.47L514.36 242.45ZM545.36 259.31V265.87L540.84 265.96V259.86C540.84 258.71 542.96 256.86 543.05 256.86C543.14 256.86 545.36 258.2 545.36 259.35V259.31ZM545.36 248.31V254.78L540.84 255.32V248.86C540.84 247.61 542.96 245.75 543.05 245.75C543.14 245.75 545.36 247 545.36 248.33V248.31ZM601.87 259.31V265.87L606.4 265.96V259.86C606.4 258.71 604.18 256.86 604.09 256.86C604 256.86 601.87 258.2 601.87 259.35V259.31ZM601.87 248.31V254.78L606.4 255.32V248.86C606.4 247.61 604.18 245.75 604.09 245.75C604 245.75 601.87 247 601.87 248.33V248.31ZM588.57 233.93C589.1 232.93 584.84 231.8 592.65 227.1H592.29V226.75H592.56V225.15H592.29C592.136 225.13 591.99 225.071 591.865 224.978C591.741 224.886 591.643 224.762 591.58 224.62C591.74 224.727 591.927 224.787 592.12 224.79C592.318 224.796 592.51 224.725 592.657 224.593C592.804 224.461 592.895 224.277 592.91 224.08C592.915 224.034 592.91 223.987 592.896 223.942C592.883 223.897 592.86 223.856 592.83 223.82C592.92 223.874 592.993 223.952 593.039 224.046C593.085 224.14 593.103 224.246 593.09 224.35C593.093 224.466 593.071 224.581 593.026 224.688C592.982 224.795 592.915 224.891 592.83 224.97V226.75H593V227.1H592.7C600.15 231.63 596.25 233.1 596.96 233.93H588.57ZM575.7 249.73V254.73H580.85V249.5C580.85 246.5 573.85 242.4 573.48 242.4C573.11 242.4 566.12 246.48 566.12 249.5V254.73H571.18V249.73C571.18 248.84 573.31 247.59 573.48 247.59C573.65 247.59 575.7 248.84 575.7 249.73ZM575.7 260.99V265.99H571.18V260.99C571.18 259.99 573.31 258.78 573.48 258.78C573.65 258.78 575.7 260.02 575.7 260.99ZM580.85 256.56H566.17V265.96H564.04V239.06H582.94V266.06H580.94L580.85 256.56ZM552.28 250.88H554.06V254.25H552.28V250.88ZM552.28 262.59H554.06V265.96H552.28V262.59ZM593 262.59H594.78V265.96H593V262.59ZM593 250.88H594.78V254.25H593V250.88ZM550.7 236.61H552.3V239.06H550.7V236.61ZM595.06 236.61H596.75V239.06H595.06V236.61ZM592.4 236.61H594V239.06H592.4V236.61ZM589.65 236.61H591.25V239.06H589.7L589.65 236.61ZM556.2 236.61H557.8V239.06H556.2V236.61ZM553.45 236.61H555.05V239.06H553.45V236.61ZM590.7 256.31H593.18C592.717 256.577 592.273 256.874 591.85 257.2C591.189 257.677 590.743 258.396 590.61 259.2V266.3H597.44V259.2C597.272 258.386 596.795 257.669 596.11 257.2C595.702 256.853 595.256 256.555 594.78 256.31H597.44V255.6H590.7V256.31ZM549.89 244.24H552.89C552.278 244.625 551.687 245.042 551.12 245.49C550.435 245.959 549.958 246.676 549.79 247.49V254.58H556.62V247.49C556.452 246.676 555.975 245.959 555.29 245.49C554.76 244.99 554.16 244.569 553.51 244.24H556.62V243.54H549.88L549.89 244.24ZM549.89 256.31H552.46C551.984 256.555 551.538 256.853 551.13 257.2C550.445 257.669 549.968 258.386 549.8 259.2V266.3H556.63V259.2C556.565 258.791 556.412 258.4 556.183 258.055C555.953 257.71 555.652 257.419 555.3 257.2C554.928 256.85 554.511 256.551 554.06 256.31H556.63V255.6H549.89V256.31ZM590.52 244.24H593.7C593.035 244.545 592.432 244.968 591.92 245.49C591.568 245.709 591.267 246 591.037 246.345C590.808 246.69 590.655 247.081 590.59 247.49V254.58H597.42V247.49C597.252 246.676 596.775 245.959 596.09 245.49C595.523 245.042 594.932 244.625 594.32 244.24H597.16V243.54H590.5L590.52 244.24ZM554.68 223.84C554.772 223.892 554.846 223.97 554.893 224.065C554.939 224.159 554.956 224.266 554.94 224.37C554.945 224.486 554.924 224.602 554.879 224.709C554.834 224.816 554.766 224.912 554.68 224.99V226.77H554.94V227.12H554.15V226.77H554.41V225.17H554.15C553.88 225.17 553.61 224.9 553.43 224.64C553.595 224.737 553.779 224.795 553.97 224.81C554.169 224.816 554.362 224.746 554.511 224.614C554.66 224.482 554.752 224.298 554.77 224.1C554.775 224.053 554.77 224.005 554.754 223.96C554.739 223.915 554.713 223.874 554.68 223.84ZM554.5 227.12C561.95 231.65 558.14 233.12 558.76 233.95H550.42C551.04 232.95 546.69 231.82 554.5 227.12Z" fill="#BD9D7B" fill-opacity="0.2"/>
<path fill-rule="evenodd" clip-rule="evenodd" d="M262.33 250.19V261.54H262.95V303.33H369.68V261.54H370.83V248.85H369.33V154.1H371.5V151.44H367.2V147.44H365.69V146.2H365.24L363.56 143.2L361.78 140L360.1 143.2L358.41 146.2H357.97V147.44H332.77V151.44H328.42V154.1H330.82V197.31H320.35L318.66 184.62L318.31 181.25V163.15H321.15V160.93H318.31V158.53H315.91V160.93H313.08V163.15H315.91V180.85L315.38 184.66L313.7 197.35H301.9V154.1H304.03V151.44H299.77V147.44H275.1V146.2H274.66L272.97 143.2L271.29 140L269.51 143.2L267.92 146.2H267.38V147.44H265.38V151.44H261V154.1H263.39V248.85H262.33V250.19ZM301.9 201.3H313.79V208.75L313.08 209.9L309 216.3H301.9V201.3ZM320.35 201.3H330.82V216.3H325.14L321.14 209.9L320.34 208.75L320.35 201.3ZM303.76 233.95C303.909 230.89 305.173 227.991 307.314 225.8C309.455 223.609 312.325 222.279 315.38 222.06C312.33 222.294 309.469 223.629 307.331 225.817C305.193 228.004 303.923 230.895 303.76 233.95ZM362.94 217.18H337.21V197.66H362.94V217.18ZM353.71 200.77C354.6 200.77 355.4 201.3 355.4 201.92V215.14H352.02V201.92C352.02 201.3 352.73 200.77 353.71 200.77ZM347.06 200.77C347.94 200.77 348.74 201.3 348.74 201.92V215.14H345.37V201.92C345.37 201.3 346.08 200.77 347.06 200.77ZM357.5 223.66H360.96V220.2H357.5V223.66ZM339.31 223.66H342.86V220.2H339.31V223.66ZM286.25 200.77C287.14 200.77 287.94 201.3 287.94 201.92V215.14H284.6V201.92C284.6 201.3 285.31 200.77 286.28 200.77H286.25ZM279.6 200.77C280.49 200.77 281.2 201.3 281.2 201.92V215.14H277.91V201.92C277.91 201.3 278.62 200.77 279.6 200.77ZM290.07 223.66H293.53V220.2H290.1L290.07 223.66ZM271.88 223.66H275.34V220.2H271.88V223.66ZM363.17 300.76H360.78V277.33C360.78 270.15 350.22 264.33 350.22 264.33C350.22 264.33 339.66 270.19 339.66 277.33V300.76H336.2V261.54H363.2V300.76H363.17ZM329.72 300.76H326.98V277.33C326.98 270.15 316.42 264.33 316.42 264.33C316.42 264.33 305.86 270.19 305.86 277.33V300.76H302.86V261.54H329.74V300.76H329.72ZM296.28 300.76H293.28V277.33C293.28 270.15 282.72 264.33 282.72 264.33C282.72 264.33 272.17 270.19 272.17 277.33V300.76H269.5V261.54H296.3V300.76H296.28Z" fill="#BD9D7B" fill-opacity="0.2"/>
<path fill-rule="evenodd" clip-rule="evenodd" d="M92.1 293.83L90.68 307.14L43.57 301.99L44.99 288.69L92.1 293.83ZM54.57 415.29C79.15 415.29 100.35 425.05 108.96 438.89H0C8.78 425.05 29.9 415.29 54.56 415.29H54.57ZM33.63 379.41L83.63 384.91L83.37 387.91L33.28 382.41L33.63 379.41ZM53 267.66L89 271.56L89.26 268.9L53.26 265L53 267.66ZM44 284.16L94.13 289.57L93.78 292.68L43.78 287.18L44 284.16ZM42 303.16L92 308.66L91.74 311.76L41.61 306.26L42 303.16ZM40 322.23L90 327.73L89.65 330.73L39.65 325.32L40 322.23ZM37.87 341.23L88 346.73L87.56 349.83L37.56 344.33L37.87 341.23ZM35.87 360.3L85.87 365.8L85.52 368.91L35.52 363.41L35.87 360.3ZM84.4 287.64L86 272.41L55.75 269.13L54 284.33L84.4 287.64ZM63.82 276.64L63.29 282.05L58.05 281.52L58.59 276.11C58.6133 275.758 58.7073 275.414 58.8664 275.098C59.0256 274.783 59.2465 274.503 59.5162 274.275C59.7858 274.047 60.0986 273.876 60.4359 273.771C60.7732 273.667 61.1281 273.631 61.4794 273.667C61.8307 273.703 62.1713 273.809 62.4808 273.979C62.7902 274.149 63.0623 274.379 63.2807 274.657C63.4992 274.934 63.6595 275.253 63.7521 275.594C63.8448 275.934 63.8679 276.29 63.82 276.64ZM81.82 278.64L81.2 284.05L75.97 283.43L76.59 278.02C76.6225 277.67 76.7241 277.33 76.8888 277.02C77.0535 276.709 77.2781 276.434 77.5496 276.211C77.8211 275.988 78.1342 275.821 78.4706 275.719C78.8071 275.618 79.1604 275.584 79.51 275.62C79.8624 275.656 80.2036 275.764 80.513 275.937C80.8223 276.109 81.0933 276.343 81.3094 276.624C81.5255 276.904 81.6822 277.226 81.77 277.569C81.8578 277.913 81.8748 278.27 81.82 278.62V278.64ZM72.82 277.64L72.2 283.05L66.97 282.43L67.59 277.02C67.6022 276.663 67.6905 276.313 67.849 275.993C68.0074 275.673 68.2323 275.39 68.5087 275.164C68.7851 274.937 69.1066 274.773 69.4518 274.681C69.7969 274.589 70.1577 274.571 70.51 274.63C70.8596 274.673 71.1971 274.785 71.5031 274.96C71.809 275.134 72.0772 275.368 72.2921 275.647C72.507 275.926 72.6643 276.245 72.7549 276.586C72.8455 276.926 72.8677 277.281 72.82 277.63V277.64ZM49.93 291.84L48.93 300.62L45.82 300.27L46.82 291.48C46.8951 291.105 47.1142 290.775 47.4302 290.56C47.7461 290.345 48.1338 290.262 48.51 290.33C48.7043 290.33 48.8966 290.369 49.075 290.446C49.2535 290.523 49.4142 290.636 49.5473 290.777C49.6804 290.919 49.7831 291.086 49.8489 291.269C49.9147 291.452 49.9423 291.646 49.93 291.84ZM80.36 373.02L79.3 381.8L76.3 381.45L77.3 372.66C77.3728 372.286 77.5899 371.956 77.9042 371.741C78.2186 371.525 78.6051 371.443 78.98 371.51C79.3508 371.568 79.6916 371.748 79.9487 372.022C80.2058 372.295 80.3646 372.646 80.4 373.02H80.36ZM76.01 372.49L75 381.41L71.89 381.05L72.89 372.27C72.9862 371.911 73.2055 371.598 73.5097 371.385C73.8138 371.172 74.1833 371.073 74.5532 371.105C74.9232 371.137 75.2699 371.299 75.5327 371.561C75.7954 371.824 75.9573 372.17 75.99 372.54L76.01 372.49ZM71.67 372.13L70.67 380.83L67.67 380.56L68.56 371.69C68.6635 371.318 68.9057 370.999 69.2368 370.8C69.568 370.601 69.9627 370.537 70.34 370.62C70.5271 370.63 70.7102 370.677 70.8788 370.759C71.0474 370.841 71.198 370.955 71.3218 371.096C71.4456 371.237 71.5402 371.4 71.6 371.578C71.6598 371.756 71.6836 371.943 71.67 372.13ZM67.41 371.6L66.41 380.38L63.31 380.03L64.31 371.25C64.4 370.53 65.11 370.09 66 370.09C66.89 370.27 67.51 370.89 67.42 371.6H67.41ZM63 371.11L62 379.98L59 379.62L59.88 370.84C59.9662 370.471 60.1878 370.149 60.5008 369.936C60.8138 369.723 61.1954 369.635 61.57 369.69C61.9467 369.693 62.3075 369.843 62.5748 370.108C62.8421 370.374 62.9948 370.733 63 371.11ZM58.74 370.75L57.74 379.45L54.63 379.18L55.52 370.31C55.6213 369.939 55.8616 369.62 56.1911 369.421C56.5206 369.222 56.914 369.157 57.29 369.24C57.4843 369.24 57.6766 369.279 57.855 369.356C58.0334 369.433 58.1942 369.546 58.3273 369.687C58.4604 369.829 58.563 369.996 58.6289 370.179C58.6947 370.362 58.7223 370.556 58.71 370.75H58.74ZM54.39 370.22L53.39 379L50.28 378.65L51.28 369.95C51.3619 369.567 51.5833 369.228 51.9011 368.999C52.2189 368.769 52.6106 368.667 53 368.71C53.89 368.89 54.51 369.51 54.42 370.22H54.39ZM50.05 369.78L49.16 378.56L45.97 378.2L46.97 369.42C47.0653 369.038 47.3022 368.707 47.6328 368.493C47.9633 368.28 48.3627 368.2 48.75 368.27C49.1231 368.303 49.4691 368.478 49.7167 368.759C49.9642 369.04 50.0943 369.406 50.08 369.78H50.05ZM45.79 369.33L44.79 378.12L41.69 377.76L42.69 368.98C42.7762 368.611 42.9978 368.289 43.3108 368.076C43.6238 367.863 44.0054 367.775 44.38 367.83C44.5718 367.835 44.7606 367.878 44.9358 367.956C45.1109 368.035 45.2689 368.146 45.4008 368.286C45.5327 368.425 45.6358 368.589 45.7043 368.768C45.7728 368.947 45.8053 369.138 45.8 369.33H45.79ZM41.44 368.8L40.55 377.58L37.36 377.23L38.36 368.53C38.4264 368.147 38.6381 367.804 38.9511 367.573C39.2641 367.342 39.6542 367.241 40.04 367.29C40.93 367.47 41.55 368.09 41.46 368.8H41.44ZM82.34 353.8L81.45 362.58L78.26 362.23L79.26 353.44C79.3482 353.074 79.5687 352.755 79.879 352.542C80.1893 352.33 80.5673 352.24 80.94 352.29C81.83 352.46 82.45 353.09 82.36 353.8H82.34ZM78.08 353.35L77 362.15L74 361.79L75 353.01C75.0728 352.636 75.2898 352.306 75.6042 352.091C75.9186 351.875 76.305 351.793 76.68 351.86C77.0565 351.9 77.4064 352.073 77.6667 352.348C77.9271 352.623 78.0807 352.982 78.1 353.36L78.08 353.35ZM73.74 352.91L72.74 361.69L69.63 361.34L70.63 352.46C70.7288 352.104 70.9569 351.799 71.2696 351.602C71.5822 351.406 71.9569 351.334 72.32 351.4C72.5143 351.4 72.7066 351.439 72.885 351.516C73.0635 351.593 73.2242 351.706 73.3573 351.847C73.4904 351.989 73.593 352.156 73.6589 352.339C73.7247 352.522 73.7523 352.716 73.74 352.91ZM69.48 352.38L68.41 361.16L65.41 360.9L66.29 352.11C66.3746 351.727 66.5954 351.387 66.9114 351.155C67.2274 350.922 67.6171 350.812 68.0081 350.845C68.3992 350.878 68.765 351.052 69.0375 351.334C69.3101 351.616 69.4708 351.988 69.49 352.38H69.48ZM65.13 351.93L64.13 360.72L61.03 360.36L62.03 351.58C62.131 351.218 62.3574 350.905 62.6688 350.695C62.9801 350.485 63.356 350.393 63.729 350.435C64.1021 350.477 64.448 350.651 64.7047 350.925C64.9614 351.199 65.1122 351.555 65.13 351.93ZM60.78 351.49L59.78 360.27L56.78 359.92L57.67 351.05C57.7744 350.699 58.0017 350.398 58.3103 350.201C58.6189 350.005 58.9881 349.926 59.35 349.98C59.5443 349.98 59.7366 350.019 59.915 350.096C60.0935 350.173 60.2542 350.286 60.3873 350.427C60.5204 350.569 60.623 350.736 60.6889 350.919C60.7547 351.102 60.7823 351.296 60.77 351.49H60.78ZM56.52 350.96L55.52 359.74L52.41 359.47L53.41 350.69C53.41 349.89 54.21 349.45 55.1 349.45C55.98 349.63 56.6 350.25 56.51 350.96H56.52ZM52.18 350.51L51.18 359.3L48.18 358.94L49.07 350.16C49.1077 349.977 49.1818 349.804 49.288 349.65C49.3941 349.497 49.5301 349.366 49.6878 349.266C49.8455 349.166 50.0218 349.099 50.206 349.069C50.3902 349.039 50.5786 349.046 50.76 349.09C50.9491 349.08 51.1383 349.11 51.3151 349.178C51.492 349.245 51.6526 349.35 51.7865 349.483C51.9204 349.617 52.0247 349.778 52.0925 349.955C52.1603 350.132 52.1901 350.321 52.18 350.51ZM47.83 350.07L46.94 358.85L43.75 358.5L44.75 349.63C44.8673 349.267 45.1123 348.958 45.4395 348.761C45.7667 348.565 46.1541 348.493 46.53 348.56C46.7204 348.56 46.9086 348.6 47.0822 348.679C47.2557 348.757 47.4105 348.871 47.5364 349.014C47.6622 349.157 47.7562 349.325 47.812 349.507C47.8678 349.689 47.8842 349.881 47.86 350.07H47.83ZM43.57 349.54L42.57 358.32L39.46 358.05L40.46 349.27C40.5373 348.892 40.7517 348.556 41.062 348.327C41.3722 348.098 41.7562 347.993 42.14 348.03C42.94 348.21 43.65 348.83 43.56 349.54H43.57ZM84.47 334.54L83.47 343.33L80.36 343.06L81.36 334.19C81.3978 334.008 81.4716 333.836 81.5771 333.683C81.6826 333.53 81.8176 333.4 81.9742 333.3C82.1308 333.201 82.3058 333.133 82.4888 333.102C82.6719 333.071 82.8593 333.077 83.04 333.12C83.84 333.21 84.55 333.83 84.46 334.54H84.47ZM80.12 334.1L79.24 342.88L76.04 342.53L77.04 333.74C77.1241 333.372 77.3437 333.049 77.655 332.836C77.9664 332.623 78.3467 332.535 78.72 332.59C79.1082 332.603 79.4754 332.769 79.7414 333.052C80.0075 333.335 80.1508 333.712 80.14 334.1H80.12ZM75.87 333.66L74.87 342.44L71.76 342.08L72.76 333.3C72.8328 332.926 73.0499 332.596 73.3642 332.381C73.6786 332.165 74.065 332.083 74.44 332.15C74.8231 332.18 75.1816 332.351 75.4458 332.63C75.7101 332.909 75.8612 333.276 75.87 333.66ZM71.52 333.12L70.52 341.91L67.42 341.64L68.42 332.86C68.4497 332.67 68.5178 332.489 68.6201 332.327C68.7225 332.164 68.8568 332.024 69.015 331.916C69.1733 331.807 69.352 331.732 69.5403 331.695C69.7285 331.658 69.9224 331.66 70.11 331.7C71 331.79 71.62 332.41 71.53 333.12H71.52ZM67.26 332.68L66.19 341.46L63.19 341.11L64.08 332.33C64.188 331.963 64.4216 331.646 64.74 331.434C65.0584 331.221 65.4412 331.128 65.8215 331.17C66.2018 331.212 66.5553 331.386 66.8201 331.662C67.0849 331.938 67.2442 332.298 67.27 332.68H67.26ZM62.91 332.24L61.91 341.02L58.8 340.66L59.8 331.88C59.8728 331.506 60.0899 331.176 60.4042 330.961C60.7186 330.745 61.1051 330.663 61.48 330.73C61.8682 330.743 62.2354 330.909 62.5014 331.192C62.7675 331.475 62.9108 331.852 62.9 332.24H62.91ZM58.57 331.79L57.57 340.49L54.57 340.22L55.46 331.44C55.4993 331.247 55.5763 331.064 55.6868 330.901C55.7972 330.738 55.9387 330.599 56.1033 330.491C56.2678 330.383 56.4521 330.309 56.6455 330.273C56.8389 330.237 57.0375 330.239 57.23 330.28C57.4179 330.289 57.6022 330.335 57.7719 330.416C57.9416 330.498 58.0934 330.612 58.2183 330.753C58.3432 330.893 58.4386 331.058 58.499 331.236C58.5594 331.414 58.5836 331.602 58.57 331.79ZM54.31 331.26L53.31 340.04L50.21 339.69L51.21 330.91C51.2361 330.721 51.3031 330.541 51.4062 330.381C51.5092 330.221 51.646 330.085 51.8068 329.983C51.9677 329.881 52.1488 329.816 52.3376 329.791C52.5264 329.766 52.7183 329.783 52.9 329.84C53.0868 329.839 53.2721 329.874 53.445 329.945C53.6179 330.016 53.7749 330.121 53.9071 330.253C54.0392 330.385 54.1437 330.542 54.2146 330.715C54.2855 330.888 54.3213 331.073 54.32 331.26H54.31ZM49.96 330.82L48.96 339.6L45.96 339.25L46.84 330.46C46.9262 330.091 47.1478 329.769 47.4608 329.556C47.7738 329.343 48.1554 329.255 48.53 329.31C48.9182 329.323 49.2854 329.489 49.5514 329.772C49.8175 330.055 49.9608 330.432 49.95 330.82H49.96ZM45.7 330.41L44.7 339.11L41.51 338.84L42.51 330.06C42.5479 329.867 42.6242 329.683 42.7345 329.52C42.8447 329.357 42.9865 329.218 43.1516 329.11C43.3167 329.003 43.5016 328.93 43.6955 328.896C43.8893 328.861 44.0881 328.866 44.28 328.91C44.4743 328.907 44.6671 328.944 44.8462 329.019C45.0253 329.095 45.1867 329.206 45.3203 329.347C45.4538 329.488 45.5566 329.656 45.6219 329.839C45.6873 330.022 45.7139 330.216 45.7 330.41ZM86.51 315.41L85.63 324.1L82.52 323.84L83.52 314.97C83.52 314.26 84.31 313.81 85.11 313.9C85.91 313.99 86.71 314.61 86.53 315.41H86.51ZM82.25 314.88L81.25 323.66L78.14 323.31L79.14 314.61C79.2064 314.227 79.4182 313.884 79.7311 313.653C80.0441 313.422 80.4342 313.32 80.82 313.37C81.62 313.55 82.33 314.17 82.24 314.88H82.25ZM77.9 314.35L77.02 323.22L73.83 322.86L74.89 314.08C74.9121 313.899 74.9732 313.724 75.0689 313.569C75.1646 313.413 75.2928 313.28 75.4447 313.178C75.5966 313.077 75.7686 313.009 75.949 312.98C76.1294 312.951 76.3139 312.961 76.49 313.01C76.6725 312.998 76.8555 313.023 77.0276 313.085C77.1997 313.147 77.357 313.244 77.4895 313.37C77.6221 313.496 77.727 313.648 77.7977 313.817C77.8684 313.986 77.9032 314.167 77.9 314.35ZM73.65 313.99L72.65 322.77L69.55 322.42L70.55 313.55C70.6447 313.191 70.8715 312.882 71.1849 312.683C71.4984 312.485 71.8753 312.412 72.24 312.48C72.6222 312.51 72.9795 312.681 73.2421 312.96C73.5047 313.24 73.6537 313.607 73.66 313.99H73.65ZM69.3 313.41L68.3 322.19L65.2 321.84L66.2 313.14C66.2687 312.756 66.4825 312.413 66.7971 312.182C67.1117 311.951 67.503 311.85 67.89 311.9C68.78 312.08 69.4 312.7 69.31 313.41H69.3ZM65.04 312.96L64 321.78L61 321.42L61.89 312.64C62.0219 312.298 62.263 312.01 62.5758 311.82C62.8887 311.629 63.2557 311.548 63.6197 311.588C63.9837 311.628 64.3242 311.787 64.5883 312.04C64.8525 312.294 65.0253 312.628 65.08 312.99L65.04 312.96ZM60.69 312.52L59.69 321.31L56.58 320.95L57.58 312.17C57.6552 311.797 57.8724 311.467 58.1858 311.251C58.4991 311.034 58.8842 310.948 59.26 311.01C59.4543 311.01 59.6466 311.049 59.825 311.126C60.0035 311.203 60.1642 311.316 60.2973 311.457C60.4304 311.599 60.5331 311.766 60.5989 311.949C60.6647 312.132 60.6923 312.326 60.68 312.52H60.69ZM56.35 311.99L55.35 320.77L52.35 320.42L53.24 311.72C53.3475 311.346 53.5819 311.02 53.903 310.799C54.224 310.579 54.6118 310.476 55 310.51C55.3668 310.558 55.7036 310.738 55.9482 311.016C56.1927 311.293 56.3283 311.65 56.33 312.02L56.35 311.99ZM52.09 311.55L51.09 320.33L47.99 319.97L48.99 311.19C49.1067 310.842 49.3393 310.545 49.649 310.348C49.9586 310.152 50.3265 310.067 50.6909 310.109C51.0553 310.152 51.3942 310.318 51.6507 310.58C51.9073 310.842 52.0659 311.185 52.1 311.55H52.09ZM47.74 311.1L46.74 319.88L43.74 319.53L44.62 310.75C44.7062 310.381 44.9274 310.057 45.2401 309.842C45.5527 309.628 45.9344 309.538 46.31 309.59C46.5043 309.59 46.6966 309.629 46.875 309.706C47.0535 309.783 47.2142 309.896 47.3473 310.037C47.4804 310.179 47.5831 310.346 47.6489 310.529C47.7147 310.712 47.7423 310.906 47.73 311.1H47.74ZM88.64 296.1L87.64 304.88L84.54 304.53L85.54 295.65C85.6573 295.289 85.9011 294.983 86.2264 294.788C86.5518 294.594 86.9367 294.523 87.31 294.59C87.4975 294.599 87.6814 294.645 87.8506 294.726C88.0198 294.808 88.171 294.922 88.295 295.063C88.4191 295.204 88.5136 295.368 88.5729 295.547C88.6321 295.725 88.655 295.913 88.64 296.1ZM84.29 295.56L83.41 304.35L80.3 304.08L81.3 295.3C81.3 294.5 82.1 294.05 82.89 294.05C83.78 294.23 84.49 294.86 84.31 295.56H84.29ZM80.04 295.12L79.04 303.9L75.93 303.55L76.93 294.77C76.9608 294.584 77.0306 294.406 77.1349 294.248C77.2393 294.091 77.3757 293.957 77.5352 293.856C77.6948 293.755 77.874 293.689 78.0609 293.662C78.2479 293.635 78.4384 293.648 78.62 293.7C78.8087 293.691 78.9972 293.722 79.1733 293.791C79.3495 293.859 79.5095 293.963 79.6431 294.097C79.7767 294.231 79.8809 294.391 79.9493 294.567C80.0176 294.743 80.0485 294.931 80.04 295.12ZM75.69 294.68L74.8 303.46L71.61 303.11L72.67 294.32C72.6953 294.137 72.7573 293.962 72.8524 293.804C72.9476 293.646 73.0738 293.509 73.2234 293.402C73.3731 293.294 73.543 293.218 73.7229 293.179C73.9028 293.139 74.0889 293.136 74.27 293.17C75.16 293.26 75.87 293.88 75.69 294.68ZM71.43 294.14L70.43 302.93L67.33 302.66L68.33 293.88C68.3987 293.496 68.6125 293.153 68.9271 292.922C69.2417 292.691 69.633 292.59 70.02 292.64C70.3899 292.696 70.7305 292.874 70.9878 293.146C71.245 293.418 71.4042 293.768 71.44 294.14H71.43ZM67.08 293.7L66.08 302.48L62.97 302.13L63.97 293.34C64.0905 292.998 64.3238 292.707 64.6316 292.514C64.9393 292.322 65.3033 292.24 65.6638 292.282C66.0242 292.324 66.3597 292.487 66.6153 292.745C66.8708 293.002 67.0311 293.339 67.07 293.7H67.08ZM62.82 293.26L61.82 302.04L58.71 301.69L59.71 292.9C59.7828 292.526 59.9998 292.196 60.3142 291.981C60.6286 291.765 61.0151 291.683 61.39 291.75C61.7722 291.78 62.1295 291.951 62.3921 292.23C62.6547 292.51 62.8037 292.877 62.81 293.26H62.82ZM58.48 292.73L57.48 301.51L54.37 301.25L55.37 292.46C55.3982 292.27 55.4654 292.088 55.5675 291.925C55.6695 291.762 55.8042 291.623 55.963 291.515C56.1218 291.407 56.3012 291.333 56.4901 291.297C56.6789 291.262 56.8729 291.266 57.06 291.31C57.94 291.4 58.57 292.02 58.48 292.73ZM54.22 292.28L53.15 301.07L50.15 300.71L51.03 291.93C51.1268 291.554 51.3678 291.231 51.7008 291.03C52.0338 290.83 52.4322 290.769 52.81 290.86C53.1834 290.87 53.5388 291.023 53.8029 291.287C54.067 291.551 54.2199 291.907 54.23 292.28H54.22ZM90.06 312.86L88.64 326.08L41.53 320.94L43 307.76L90.06 312.86ZM88.06 331.94L86.55 345.16L39.44 340.01L40.95 326.79L88.06 331.94ZM85.93 351.02L84.51 364.24L37.4 359.09L38.82 345.87L85.93 351.02ZM83.93 370.02L82.42 383.33L35.42 378.18L36.84 364.88L83.93 370.02ZM81.8 389.1L78.8 417.1C78.09 416.92 77.39 416.75 76.59 416.48L78.89 395.99C79.07 393.99 77.3 392.17 74.81 391.82C72.32 391.47 70.2 392.97 70.02 395.1L67.89 414.8L65.58 414.53L67.71 394.83C67.89 392.83 66.12 390.93 63.71 390.66C61.3 390.39 59.1 391.82 58.92 393.86L56.7 413.86C56.0358 413.789 55.3679 413.759 54.7 413.77H54.44L56.65 393.54C56.83 391.54 55.06 389.64 52.65 389.37C50.24 389.1 48.04 390.53 47.77 392.56L45.47 414.22L43.07 414.48L45.47 392.3C45.73 390.3 43.87 388.4 41.47 388.13C39.07 387.86 36.86 389.28 36.68 391.41L33.93 416.17C33.04 416.34 32.07 416.61 31.18 416.87L34.73 383.87L81.8 389.1Z" fill="#BD9D7B" fill-opacity="0.2"/>
<path fill-rule="evenodd" clip-rule="evenodd" d="M215.31 219.08H213.72V207.72L213.54 207.9L213.27 207.72V211.36L212.92 210.92L212.57 211.54L212.21 212.16L211.77 211.54L211.41 210.92L210.97 211.54L210.61 212.16L210.17 211.54L209.82 210.92L209.37 211.54L209.02 212.16L208.66 211.54L208.22 210.92L207.86 211.54L207.42 212.16L207.06 211.54L206.62 210.92L206.27 211.54L205.91 212.16L205.47 211.54L205.11 210.92L204.67 211.54L204.31 212.16L203.87 211.54L203.52 210.92L203.07 211.54L202.72 212.16L202.36 211.54L201.92 210.92L201.56 211.54L201.12 212.16L200.77 211.54L200.32 210.92L199.97 211.54L199.61 212.16L199.17 211.54L198.81 210.92L198.37 211.54L198.01 212.16L197.57 211.54L197.22 210.92L196.77 211.54L196.42 212.16L196.06 211.54L195.62 210.92L195.26 211.54L194.82 212.16L194.47 211.54L194.02 210.92L193.67 211.54L193.31 212.16L192.87 211.54L192.52 210.92L192.07 211.54L191.71 212.16L191.27 211.54L190.92 210.92L190.47 211.54L190.12 212.16L189.77 211.54L189.32 210.92L188.96 211.54L188.52 212.16L188.17 211.54L187.72 210.92L187.37 211.54L187.01 212.16L186.57 211.54L186.22 210.92L185.86 211.45V207.72L185.59 207.9L185.33 207.72V219.08H183.82V214.64L183.64 214.91L183.38 214.64V251.46H215.76V214.64L215.49 214.91L215.31 214.64V219.08ZM216.31 357.84H182V337.36H216.33L216.31 357.84ZM212.94 335.75V316.58H211.5V335.75H210.43V316.58H208.93V335.75H207.86V316.58H206.44V335.75H205.29V316.58H203.87V335.75H202.72V316.58H201.3V335.75H200.14V316.58H198.72V335.75H197.57V316.58H196.15V335.75H195.09V316.58H193.58V335.75H192.52V316.58H191.09V335.75H189.94V316.58H188.52V335.75H187.37V316.58H186V335.75H184.84V296.09H214.12V335.75H212.94ZM211.52 315.52H212.94V296.98H211.5L211.52 315.52ZM185.97 315.52H187.39V296.98H186L185.97 315.52ZM188.54 315.52H189.96V296.98H188.54V315.52ZM191.11 315.52H192.54V296.98H191.11V315.52ZM193.6 315.52H195.11V296.98H193.6V315.52ZM196.17 315.52H197.59V296.98H196.17V315.52ZM198.74 315.52H200.16V296.98H198.74V315.52ZM201.32 315.52H202.74V296.98H201.3L201.32 315.52ZM203.89 315.52H205.31V296.98H203.89V315.52ZM206.46 315.52H207.88V296.98H206.46V315.52ZM208.95 315.52H210.45V296.98H208.95V315.52ZM186.66 206.75L185.59 205.86L184.59 206.75L185.59 207.81L186.66 206.75ZM214.52 206.75L213.52 205.86L212.52 206.75L213.52 207.81L214.52 206.75ZM216.52 213.67L215.52 212.78L214.64 213.67L215.52 214.73L216.52 213.67ZM184.58 213.67L183.69 212.78L182.69 213.67L183.69 214.73L184.58 213.67ZM185.38 205.95V205.36H185.91V205.98L185.64 205.71L185.38 205.95ZM213.32 205.95V205.36H213.77V205.98L213.59 205.71L213.32 205.95ZM183.43 212.87V212.16H183.87V212.78L183.69 212.6L183.43 212.87ZM215.36 212.78V212.16H215.81V212.87L215.54 212.6L215.36 212.78ZM192.65 200.78L188.34 211.36L188.43 211.45L188.52 211.63L189.32 210.47L189.94 211.47L190.12 211.65L190.3 211.47L190.92 210.47L191.71 211.72L191.89 211.45L192.52 210.39L193.05 211.45L193.31 211.72L194.02 210.47L194.73 211.47L194.82 211.65L195 211.47L195.62 210.47L196.24 211.47L196.42 211.65L196.6 211.47L197.22 210.47L197.84 211.47L198.01 211.74L198.19 211.47L198.81 210.41L199.35 211.47L199.61 211.74L199.7 211.47L200.32 210.47L201.03 211.47L201.12 211.65L201.92 210.49L202.54 211.49L202.72 211.67L202.9 211.49L203.52 210.49L204.31 211.74L204.49 211.47L205.11 210.41L205.73 211.47L205.91 211.74L206.62 210.49L207.33 211.49L207.42 211.67L208.22 210.51L208.84 211.51L209.02 211.69L209.2 211.51L209.82 210.51L210.61 211.67L210.7 211.49L210.79 211.4L206.53 200.84L192.65 200.78ZM194.07 207.97L193.19 206.46L192.92 206.11L191.76 207.97L192.12 208.15L192.92 206.82L193.63 208.15L194.07 207.97ZM200.73 204.42L199.84 202.82L199.66 202.47L198.51 204.42L198.86 204.6L199.66 203.26L200.37 204.6L200.73 204.42ZM205.16 204.42L204.16 202.82L203.98 202.47L202.83 204.42L203.18 204.6L203.98 203.26L204.69 204.6L205.16 204.42ZM207.38 207.97L206.38 206.46L206.2 206.11L205.13 207.97L205.4 208.15L206.2 206.82L206.99 208.15L207.38 207.97ZM202.86 207.97L202.06 206.46L201.79 206.11L200.64 207.97L200.99 208.15L201.79 206.82L202.59 208.15L202.86 207.97ZM198.42 207.97L197.62 206.46L197.36 206.11L196.2 207.97L196.56 208.15L197.36 206.82L198.06 208.15L198.42 207.97ZM196.74 204.42L195.93 202.82L195.67 202.47L194.52 204.42L194.87 204.6L195.67 203.26L196.38 204.6L196.74 204.42ZM189.9 213.74H186.71V218.08H189.9V213.74ZM212.08 213.74H208.98V218.08H212L212.08 213.74ZM207.74 213.74H204.4V218.08H207.69L207.74 213.74ZM203.3 213.74H200V218.08H203.28L203.3 213.74ZM198.86 213.74H195.58V218.08H198.86V213.74ZM194.34 213.74H191.14V218.08H194.34V213.74ZM200.9 173.9H198.33V172.06H200.9V173.9ZM192.57 188.19L191.57 187.19L190.57 188.19L191.57 189.19L192.57 188.19ZM208.62 188.19L207.62 187.19L206.62 188.19L207.62 189.19L208.62 188.19ZM207.11 192L206.76 192.71L206.41 193.42H206.32L206.05 192.71L205.61 192L205.16 192.71L204.89 193.42L204.54 192.71L204.1 192L203.74 192.71L203.39 193.42L203.03 192.71L202.68 192L202.23 192.71L201.88 193.42L201.52 192.71L201.17 192L200.73 192.71L200.46 193.42H200.37L200.02 192.71L199.66 192L199.22 192.71L198.95 193.42H198.86L198.51 192.71L198.15 192L197.71 192.71L197.44 193.42H197.36L197 192.71L196.65 192L196.2 192.71L195.93 193.42H195.85L195.49 192.71L195.05 192L194.69 192.71L194.34 193.42L194.07 192.71L193.63 192L193.19 192.71L192.92 193.42H192.83L192.57 192.71L192.12 192L191.85 192.44V189.36L191.59 189.53L191.32 189.36V193.44V200.27H207.91V193.44V189.36L207.65 189.53L207.38 189.36V192.46L207.11 192ZM199.66 171C199.66 171.27 199.57 171.54 199.57 171.8H199.66V171ZM199.31 174.2C198.31 180.32 195.49 185.73 193.54 191.5V191.36L194.25 192.6L194.34 192.78L195 191.36L195.71 192.6L195.8 192.78L195.88 192.6L196.6 191.36L197.31 192.78L197.39 192.6L198.1 191.36L198.81 192.78L198.9 192.6L199.61 191.36L200.23 192.6L200.32 192.78L200.41 192.6L201.12 191.36L201.83 192.78L201.92 192.6L202.63 191.36L203.34 192.78L203.43 192.6L204.14 191.36L204.67 192.6L204.84 192.78L204.93 192.6L205.56 191.36C205.73 191.09 200.14 176.63 199.79 174.15L199.31 174.2ZM200.73 182.54L199.84 181.12L199.66 180.67L198.51 182.54L198.86 182.8L199.66 181.47L200.37 182.8L200.73 182.54ZM197.36 190.17L196.56 188.57L196.29 188.22L195.14 190.17L195.49 190.35L196.29 188.92L197 190.36L197.36 190.17ZM200.73 190.17L199.84 188.57L199.66 188.22L198.51 190.17L198.86 190.35L199.66 188.92L200.37 190.35L200.73 190.17ZM204.1 190.17L203.21 188.57L202.95 188.22L201.79 190.17L202.23 190.35L202.95 188.92L203.74 190.35L204.1 190.17ZM198.77 186.53L197.89 184.93L197.62 184.58L196.56 186.58L196.91 186.76L197.62 185.34L198.42 186.76L198.77 186.53ZM202.68 186.53L201.79 184.93L201.61 184.58L200.46 186.58L200.73 186.76L201.61 185.34L202.32 186.76L202.68 186.53ZM191.32 187.15V186.53H191.85V187.15L191.59 186.89L191.32 187.15ZM207.38 187.15V186.53H207.91V187.15L207.65 186.89L207.38 187.15ZM194.69 194.78H192.21V199.22H194.69V194.78ZM207.02 194.78H204.54V199.22H207L207.02 194.78ZM203.92 194.78H201.43V199.22H203.92V194.78ZM200.92 194.78H198.44V199.22H200.92V194.78ZM197.82 194.78H195.33V199.22H197.82V194.78ZM211.75 293.88H213.17V273.64H211.75V293.88ZM186.11 293.88H187.53V273.64H186L186.11 293.88ZM188.68 293.88H190V273.64H188.58L188.68 293.88ZM191.25 293.88H192.67V273.64H191.25V293.88ZM193.83 293.88H195.24V273.64H193.83V293.88ZM196.4 293.88H197.82V273.64H196.4V293.88ZM198.88 293.88H200.39V273.64H198.88V293.88ZM201.45 293.88H202.88V273.64H201.45V293.88ZM204.03 293.88H205.45V273.64H204L204.03 293.88ZM206.6 293.88H208V273.64H206.58L206.6 293.88ZM209.18 293.88H210.59V273.64H209.18V293.88ZM211.75 272.59H213.17V253.95H211.75V272.59ZM186.11 272.59H187.53V253.95H186L186.11 272.59ZM188.68 272.59H190V253.95H188.58L188.68 272.59ZM191.25 272.59H192.67V253.95H191.25V272.59ZM193.83 272.59H195.24V253.95H193.83V272.59ZM196.4 272.59H197.82V253.95H196.4V272.59ZM198.88 272.59H200.39V253.95H198.88V272.59ZM201.45 272.59H202.88V253.95H201.45V272.59ZM204.03 272.59H205.45V253.95H204L204.03 272.59ZM206.6 272.59H208V253.95H206.58L206.6 272.59ZM209.18 272.59H210.59V253.95H209.18V272.59ZM214.23 253.16H185V294.68H214.19L214.23 253.16ZM188.77 248.72H187V250.36H188.69L188.77 248.72ZM212.1 248.72H210.42V250.36H212L212.1 248.72ZM209.97 248.72H208.29V250.36H209.97V248.72ZM207.84 248.72H206.16V250.36H207.84V248.72ZM205.71 248.72H204V250.36H205.68L205.71 248.72ZM203.59 248.72H201.9V250.36H203.59V248.72ZM201.45 248.72H199.7V250.36H201.38L201.45 248.72ZM199.33 248.72H197.64V250.36H199.33V248.72ZM197.2 248.72H195.51V250.36H197.2V248.72ZM195.07 248.72H193.47V250.36H195L195.07 248.72ZM193.07 248.72H191.38V250.36H193L193.07 248.72ZM190.94 248.72H189.25V250.36H190.94V248.72ZM199.72 236.3C199.55 236.3 199.37 236.21 199.19 236.21L198.57 236.84C198.48 237.19 198.48 237.45 198.3 237.63C198.235 237.674 198.158 237.698 198.08 237.698C198.001 237.698 197.925 237.674 197.86 237.63C197.735 237.436 197.587 237.258 197.42 237.1C197.24 237.01 197.24 236.84 197.42 236.66C197.609 236.483 197.86 236.386 198.12 236.39L198.83 235.77C198.66 235.68 198.66 235.41 198.66 235.24V234.97L192.27 228.14V227.96H192.44C192.44 227.87 192.53 227.87 192.53 227.96L199.28 234.26C199.412 234.179 199.567 234.148 199.72 234.17C199.937 234.186 200.148 234.248 200.34 234.35L201.41 233.35C201.363 233.348 201.319 233.328 201.285 233.295C201.252 233.261 201.232 233.217 201.23 233.17C201.188 233.15 201.152 233.118 201.127 233.078C201.102 233.038 201.089 232.992 201.089 232.945C201.089 232.898 201.102 232.852 201.127 232.812C201.152 232.772 201.188 232.74 201.23 232.72C201.545 232.518 201.918 232.427 202.29 232.46L202.47 232.28V231.83H203V232.36H202.65L202.38 232.62C202.38 233.07 202.38 233.51 202.2 233.69C202.119 233.735 202.028 233.758 201.935 233.758C201.842 233.758 201.751 233.735 201.67 233.69L201.58 233.6L200.52 234.66C200.62 234.824 200.681 235.009 200.7 235.2C200.7 235.37 200.61 235.46 200.61 235.55C200.926 236.026 201.395 236.379 201.94 236.55C201.964 236.55 201.987 236.559 202.004 236.576C202.021 236.593 202.03 236.616 202.03 236.64C202.03 236.73 202.03 236.82 201.94 236.82C201.85 236.82 201.76 236.9 201.76 236.99C201.76 237.08 201.67 237.08 201.67 237.17C201.661 237.238 201.629 237.302 201.58 237.35C201.4 237.35 201.32 237.35 201.32 237.43C201.273 237.432 201.229 237.452 201.195 237.485C201.162 237.519 201.142 237.563 201.14 237.61H201C200.91 237.7 200.91 237.61 200.82 237.61C200.653 237.046 200.273 236.568 199.76 236.28L199.72 236.3ZM199.46 226.01H198.83L198.75 224.86H199.46V226.01ZM198.3 226.1C198.04 226.19 197.77 226.19 197.5 226.28L197.24 225.12C197.561 225.005 197.899 224.945 198.24 224.94L198.3 226.1ZM197 226.36C196.812 226.473 196.599 226.535 196.38 226.54L195.93 225.48L196.74 225.21L197 226.36ZM196 226.72C195.748 226.877 195.475 226.998 195.19 227.08L194.57 226.08C194.876 225.875 195.214 225.723 195.57 225.63L196 226.72ZM194.75 227.34C194.596 227.49 194.416 227.612 194.22 227.7L193.51 226.7C193.764 226.583 194.002 226.435 194.22 226.26L194.75 227.34ZM193.87 227.96C193.743 228.107 193.591 228.229 193.42 228.32L193.6 228.49C193.69 228.4 193.87 228.23 193.95 228.14H194L194.09 228.05C194.36 227.87 194.53 227.7 194.8 227.52H194.89L196.75 230.8C196.593 230.872 196.445 230.962 196.31 231.07L196.49 231.25C197.354 230.52 198.46 230.139 199.59 230.18C200.837 230.201 202.034 230.674 202.96 231.51H203.32C203.062 231.228 202.762 230.989 202.43 230.8L204.2 227.52H204.29L205.29 228.23L205.38 228.32C205.57 228.516 205.777 228.693 206 228.85C206.213 229.136 206.451 229.404 206.71 229.65V229.74L206.8 229.82C206.975 230.041 207.123 230.283 207.24 230.54L204.05 232.36C203.87 232.09 203.6 231.74 203.43 231.47V231.91C204.216 232.827 204.655 233.992 204.67 235.2C204.683 236.21 204.395 237.201 203.842 238.047C203.289 238.892 202.497 239.553 201.566 239.946C200.635 240.339 199.609 240.446 198.617 240.252C197.626 240.059 196.715 239.574 196 238.86C195.516 238.388 195.133 237.824 194.873 237.2C194.614 236.576 194.483 235.906 194.49 235.23C194.463 234.134 194.841 233.066 195.55 232.23L195.37 232.05C195.28 232.14 195.19 232.32 195.11 232.41L191.91 230.55C192.09 230.18 192.33 229.842 192.62 229.55V229.46C192.71 229.46 192.71 229.37 192.8 229.28L192.62 229.1C192.54 229.19 192.54 229.28 192.44 229.37L191.44 228.57C191.595 228.5 191.72 228.375 191.79 228.22V227.78L192.06 227.69C192.15 227.51 192.32 227.51 192.51 227.51C192.697 227.337 192.905 227.189 193.13 227.07L193.87 227.96ZM192.35 229.56H192.27L191.47 228.85L192.35 229.47V229.56ZM192.18 229.74C191.979 229.941 191.826 230.183 191.73 230.45L191.2 230.09L190.67 229.82C190.829 229.545 191.006 229.281 191.2 229.03H191.29L192.18 229.74ZM191.47 230.8C191.365 231 191.275 231.207 191.2 231.42L190.05 230.89C190.14 230.71 190.32 230.45 190.4 230.27L191.47 230.8ZM190.94 231.86L190.67 232.66L189.61 232.31H189.52C189.61 231.95 189.79 231.69 189.87 231.31L190.94 231.86ZM190.58 233.13C190.508 233.333 190.448 233.54 190.4 233.75L189.25 233.57C189.34 233.31 189.34 233.04 189.43 232.77V232.86L190.58 233.13ZM190.4 233.93L189.34 233.84V233.75L190.4 233.93ZM190.4 234.19C190.334 234.451 190.307 234.721 190.32 234.99H189.16C189.144 234.654 189.174 234.318 189.25 233.99L190.4 234.19ZM190.32 235.52C190.306 235.73 190.334 235.94 190.4 236.14L189.16 236.23V235.52H190.32ZM190.4 236.59C190.49 236.86 190.49 237.21 190.58 237.47L189.43 237.74C189.324 237.417 189.263 237.08 189.25 236.74L190.4 236.59ZM190.67 237.92L190.94 238.45L189.79 238.89V238.98L189.52 238.18H189.61L190.67 237.92ZM191.03 238.72L190.03 239.16V239.07L191.03 238.72ZM191.11 238.89C191.19 239.173 191.311 239.442 191.47 239.69L190.4 240.32C190.23 240.05 190.14 239.69 189.96 239.43L190 239.36L191.11 238.89ZM191.73 240.14C191.797 240.323 191.924 240.478 192.09 240.58L191.03 241.29C190.893 241.094 190.772 240.886 190.67 240.67L191.73 240.14ZM192.35 240.93C192.54 241.2 192.71 241.38 192.89 241.64L192.09 242.53H192C191.82 242.27 191.56 242 191.38 241.73L192.35 240.93ZM193.25 242C193.42 242.09 193.51 242.27 193.69 242.35L192.98 243.35H192.89C192.71 243.17 192.54 242.99 192.35 242.82L193.25 242ZM194.04 242.71C194.31 242.89 194.49 242.97 194.75 243.15L194.22 244.22H194.13C193.846 244.036 193.579 243.829 193.33 243.6L194.04 242.71ZM195.19 243.42L195.73 243.69L195.28 244.75C195.022 244.682 194.781 244.563 194.57 244.4L195.19 243.42ZM196.19 243.86L196.99 244.13L196.73 245.28L195.73 245.02L196.19 243.86ZM197.19 244.22L197.01 245.22H196.92L197.19 244.22ZM197.45 244.31C197.63 244.31 197.9 244.4 198.07 244.4L197.9 245.55C197.63 245.55 197.37 245.46 197.19 245.46L197.45 244.31ZM198.25 244.48H198.34L198.16 245.48L198.25 244.48ZM198.52 244.48C198.78 244.48 199.14 244.57 199.41 244.57V245.73C199.051 245.745 198.692 245.715 198.34 245.64L198.52 244.48ZM199.85 244.57C200.061 244.584 200.272 244.554 200.47 244.48L200.65 245.64V245.73H199.85V244.57ZM201 244.48C201.27 244.4 201.53 244.4 201.8 244.31L202.07 245.46C201.8 245.55 201.44 245.55 201.07 245.64L201 244.48ZM202.07 244.22L202.33 245.22H202.24L202.07 244.22ZM202.24 244.13C202.458 244.1 202.67 244.04 202.87 243.95L203.31 245.02V245.1C203.086 245.202 202.845 245.263 202.6 245.28L202.24 244.13ZM203.04 243.86H203.13L203.49 244.86L203.04 243.86ZM203.31 243.78C203.551 243.658 203.781 243.518 204 243.36L204.62 244.36V244.44C204.306 244.554 204.007 244.705 203.73 244.89V244.8L203.31 243.78ZM204.46 243.15C204.655 243.064 204.835 242.946 204.99 242.8L205.7 243.8C205.53 243.97 205.26 244.06 205.08 244.24L204.46 243.15ZM205.35 242.53C205.575 242.376 205.783 242.198 205.97 242L206.86 242.8C206.614 243.059 206.346 243.296 206.06 243.51L205.35 242.53ZM206.35 241.64C206.52 241.47 206.61 241.29 206.7 241.2L207.7 241.91C207.58 242.11 207.428 242.289 207.25 242.44L206.35 241.64ZM207.05 240.76C207.251 240.559 207.404 240.317 207.5 240.05L208.56 240.67C208.405 240.979 208.228 241.276 208.03 241.56H207.94L207.05 240.76ZM207.77 239.69C207.85 239.51 207.94 239.34 208.03 239.16L209.19 239.6C209.035 239.821 208.913 240.063 208.83 240.32H208.74L207.77 239.69ZM208.21 238.69C208.335 238.438 208.423 238.168 208.47 237.89L209.63 238.15H209.72C209.574 238.473 209.454 238.808 209.36 239.15L208.21 238.69ZM208.65 237.44C208.65 237.27 208.74 237 208.74 236.83L209.98 237C209.9 237.18 209.9 237.44 209.81 237.71L208.65 237.44ZM208.83 236.56L209.9 236.74H209.81L208.83 236.56ZM208.83 236.29C208.904 236.03 208.935 235.76 208.92 235.49H210C210.017 235.826 209.986 236.162 209.91 236.49L208.83 236.29ZM208.92 234.96C208.934 234.779 208.903 234.596 208.83 234.43L210.07 234.25V234.96H208.92ZM208.83 234.16V234.07L209.9 233.98V234.07L208.83 234.16ZM208.83 233.9C208.74 233.63 208.74 233.37 208.65 233.1L209.81 232.83V232.74C209.91 233.088 209.967 233.448 209.98 233.81L208.83 233.9ZM208.56 232.65C208.488 232.438 208.401 232.23 208.3 232.03L209.45 231.59C209.553 231.814 209.614 232.054 209.63 232.3L208.56 232.65ZM208.21 231.77L209.21 231.32V231.41L208.21 231.77ZM208.12 231.59C208.037 231.31 207.92 231.041 207.77 230.79L208.77 230.26H208.86C209.04 230.53 209.13 230.88 209.31 231.15L208.12 231.59ZM207.5 230.44L207.23 229.91L208.12 229.19C208.294 229.376 208.442 229.585 208.56 229.81L207.5 230.44ZM206.88 229.44C206.681 229.253 206.503 229.045 206.35 228.82L207.23 228.02C207.417 228.273 207.624 228.511 207.85 228.73V228.82L206.88 229.44ZM205.99 228.55C205.889 228.364 205.736 228.211 205.55 228.11L206.26 227.11C206.44 227.29 206.7 227.47 206.88 227.65L205.99 228.55ZM205.37 227.93L206.08 227.13L205.46 227.93H205.37ZM205.19 227.84C204.92 227.67 204.75 227.49 204.48 227.31L205.1 226.31L205.9 226.85L205.19 227.84ZM204.04 227.13C203.881 226.988 203.703 226.87 203.51 226.78L203.95 225.71C204.204 225.793 204.443 225.915 204.66 226.07L204.04 227.13ZM203.04 226.6L202.24 226.33L202.6 225.18C202.87 225.27 203.22 225.45 203.49 225.54L203.04 226.6ZM201.8 226.25C201.62 226.16 201.36 226.16 201.18 226.07L201.36 224.91C201.62 225 201.89 225 202.07 225.09L201.8 226.25ZM201 226.07H200.91L201.09 225L201 226.07ZM200.74 226.07C200.449 225.996 200.15 225.965 199.85 225.98V224.83H200.91L200.74 226.07ZM195.26 227.36C195.53 227.18 195.71 227.1 195.98 226.92H196.06L196.33 226.83C196.6 226.74 196.77 226.65 197.04 226.56H197.13L197.31 226.47H197.48C197.75 226.38 198.01 226.38 198.28 226.3H198.72V226.21H199.35V229.94C198.575 229.991 197.819 230.202 197.13 230.56L195.26 227.36ZM199.79 226.21C200.06 226.195 200.33 226.226 200.59 226.3H201C201.211 226.34 201.418 226.397 201.62 226.47H201.71L201.98 226.56H202.07L202.87 226.83V226.92H203C203.09 226.92 203.18 227.01 203.27 227.01L203.36 227.1C203.54 227.1 203.71 227.27 203.89 227.36L202.03 230.56C201.336 230.214 200.583 230.003 199.81 229.94L199.79 226.21ZM207.51 231C207.664 231.249 207.782 231.518 207.86 231.8L207.95 231.88C207.95 231.97 207.95 232.06 208.04 232.06V232.15C208.13 232.42 208.22 232.77 208.31 233.15C208.486 233.785 208.573 234.441 208.57 235.1H204.84C204.813 234.332 204.633 233.577 204.31 232.88L207.51 231ZM208.57 235.52C208.585 235.79 208.554 236.06 208.48 236.32C208.462 236.682 208.405 237.041 208.31 237.39C208.132 238.156 207.864 238.898 207.51 239.6L204.22 237.74C204.566 237.046 204.777 236.293 204.84 235.52H208.57ZM207.24 239.96C207.124 240.243 206.977 240.511 206.8 240.76L206.62 240.93L206.53 241.02C206.36 241.2 206.27 241.38 206.18 241.47L206 241.56L205.91 241.73L205.73 241.82H205.82C205.599 241.979 205.392 242.157 205.2 242.35H205.11V242.44L205.02 242.53C204.76 242.71 204.58 242.8 204.31 242.97L202.45 239.69C202.768 239.481 203.066 239.244 203.34 238.98C203.621 238.726 203.861 238.429 204.05 238.1L207.24 239.96ZM203.87 243.24C203.643 243.378 203.406 243.498 203.16 243.6V243.51L202.98 243.6L202.9 243.69L202.72 243.78C202.529 243.795 202.345 243.853 202.18 243.95H202.1C202.01 243.95 201.83 244.04 201.74 244.04H201.65C201.327 244.146 200.99 244.206 200.65 244.22H200.47C200.241 244.294 200 244.325 199.76 244.31V240.58C200.532 240.512 201.285 240.302 201.98 239.96L203.87 243.24ZM199.35 244.31C199.08 244.325 198.81 244.295 198.55 244.22H198.1C197.89 244.171 197.683 244.111 197.48 244.04C197.025 243.932 196.58 243.785 196.15 243.6H196.06C195.8 243.51 195.53 243.33 195.26 243.24L197.13 239.96C197.825 240.302 198.578 240.512 199.35 240.58V244.31ZM194.82 242.97C194.574 242.84 194.336 242.693 194.11 242.53H194.2L194.11 242.44L193.85 242.35V242.27H193.76C193.67 242.09 193.49 242 193.31 241.82H193.4L193.31 241.73L193.14 241.56L192.96 241.47C192.761 241.281 192.58 241.073 192.42 240.85L192.25 240.58L192.16 240.49L191.89 239.96H191.8L195.09 238.1C195.304 238.434 195.571 238.731 195.88 238.98C196.158 239.266 196.456 239.534 196.77 239.78L194.82 242.97ZM191.63 239.6C191.457 239.331 191.335 239.033 191.27 238.72H191.18C191.09 238.45 191.01 238.1 190.92 237.83C190.848 237.695 190.817 237.542 190.83 237.39C190.652 236.783 190.561 236.153 190.56 235.52H194.29C194.315 236.299 194.528 237.061 194.91 237.74L191.63 239.6ZM190.56 235.08C190.545 234.78 190.576 234.48 190.65 234.19V233.75C190.74 233.57 190.74 233.31 190.83 233.13C190.83 232.95 190.83 232.86 190.92 232.77V232.68C190.994 232.439 191.08 232.202 191.18 231.97L191.27 231.8V231.71C191.27 231.62 191.36 231.62 191.36 231.53L191.63 231L194.91 232.86C194.528 233.539 194.315 234.301 194.29 235.08H190.56ZM211.56 223.19H199.56C202.75 223.206 205.803 224.485 208.052 226.747C210.302 229.009 211.563 232.07 211.56 235.26V223.19ZM202.15 225.19H202.24L201.98 226.26L202.15 225.19ZM206.77 227.94H206.86L206.15 228.74L206.06 228.65L206.77 227.94ZM206.86 242.49L206.77 242.58L206.06 241.78H206.15L206.86 242.49ZM192.3 242.58L192.22 242.49L192.93 241.78H193.02L192.3 242.58ZM196.83 225.19H197L197.18 226.26L196.83 225.19ZM207.83 229.01L206.94 229.72V229.63L207.83 229.01ZM195.53 244.86L195.44 244.77L195.88 243.77L195.53 244.86ZM193.14 243.36V243.27L193.85 242.47L193.14 243.36ZM193.4 226.92V226.83L194.02 227.72V227.8L193.4 226.92ZM195.71 225.58L196.15 226.58L196.06 226.67L195.71 225.58ZM199.61 223.1H187.55V235.17C187.553 231.971 188.824 228.904 191.085 226.642C193.345 224.379 196.411 223.105 199.61 223.1ZM187.55 235.17V247.23H199.61C196.412 247.227 193.346 245.956 191.085 243.695C188.824 241.434 187.553 238.368 187.55 235.17ZM199.61 247.23H211.61V235.23C211.61 238.418 210.348 241.477 208.099 243.737C205.85 245.997 202.798 247.274 199.61 247.29V247.23ZM199.61 246.61C197.354 246.612 195.148 245.945 193.272 244.692C191.395 243.44 189.933 241.659 189.069 239.575C188.205 237.491 187.979 235.197 188.419 232.985C188.86 230.772 189.947 228.74 191.543 227.145C193.138 225.551 195.172 224.466 197.385 224.027C199.598 223.589 201.891 223.817 203.974 224.683C206.057 225.548 207.837 227.012 209.088 228.89C210.338 230.768 211.004 232.974 211 235.23C210.995 238.249 209.799 241.143 207.672 243.285C205.545 245.427 202.659 246.644 199.64 246.67L199.61 246.61ZM209.73 245.9C209.602 245.906 209.474 245.884 209.355 245.834C209.237 245.784 209.131 245.709 209.046 245.613C208.961 245.517 208.898 245.403 208.862 245.28C208.827 245.156 208.819 245.027 208.84 244.9C208.842 244.788 208.868 244.677 208.914 244.575C208.961 244.473 209.028 244.382 209.112 244.307C209.195 244.232 209.293 244.175 209.399 244.139C209.506 244.104 209.618 244.09 209.73 244.1C209.951 244.097 210.165 244.178 210.328 244.326C210.491 244.475 210.592 244.68 210.61 244.9C210.624 245.025 210.612 245.151 210.574 245.27C210.536 245.39 210.474 245.501 210.391 245.595C210.308 245.689 210.207 245.765 210.093 245.817C209.979 245.87 209.855 245.898 209.73 245.9ZM209.73 226.03C209.495 226.027 209.27 225.933 209.104 225.766C208.937 225.6 208.843 225.375 208.84 225.14C208.834 225.022 208.853 224.904 208.896 224.794C208.939 224.684 209.004 224.584 209.088 224.501C209.172 224.418 209.273 224.354 209.383 224.312C209.494 224.271 209.612 224.253 209.73 224.26C209.963 224.26 210.187 224.353 210.352 224.518C210.517 224.683 210.61 224.907 210.61 225.14C210.586 225.366 210.486 225.578 210.326 225.74C210.166 225.901 209.956 226.004 209.73 226.03ZM189.59 226.03C189.354 226.03 189.128 225.936 188.961 225.769C188.794 225.602 188.7 225.376 188.7 225.14C188.723 224.921 188.827 224.719 188.99 224.572C189.153 224.425 189.365 224.344 189.585 224.344C189.805 224.344 190.017 224.425 190.18 224.572C190.343 224.719 190.447 224.921 190.47 225.14C190.47 225.374 190.378 225.599 190.213 225.766C190.048 225.932 189.824 226.027 189.59 226.03ZM189.59 245.9C189.462 245.906 189.334 245.884 189.215 245.834C189.097 245.784 188.991 245.709 188.906 245.613C188.821 245.517 188.758 245.403 188.722 245.28C188.687 245.156 188.679 245.027 188.7 244.9C188.723 244.681 188.827 244.479 188.99 244.332C189.153 244.185 189.365 244.104 189.585 244.104C189.805 244.104 190.017 244.185 190.18 244.332C190.343 244.479 190.447 244.681 190.47 244.9C190.491 245.026 190.483 245.155 190.448 245.277C190.413 245.4 190.351 245.513 190.267 245.609C190.183 245.704 190.079 245.78 189.961 245.831C189.844 245.881 189.717 245.905 189.59 245.9ZM211.94 222.74V247.59H187.19V222.8L211.94 222.74ZM212.03 220.09H210.35V221.86H212L212.03 220.09ZM188.7 220.09H187V221.86H188.69L188.7 220.09ZM190.83 220.09H189.14V221.86H190.83V220.09ZM192.96 220.09H191.27V221.86H193L192.96 220.09ZM194.96 220.09H193.36V221.86H195L194.96 220.09ZM197.09 220.09H195.4V221.86H197.09V220.09ZM199.22 220.09H197.53V221.86H199.22V220.09ZM201.34 220.09H199.7V221.86H201.38L201.34 220.09ZM203.48 220.09H201.79V221.86H203.48V220.09ZM205.6 220.09H204V221.86H205.68L205.6 220.09ZM207.73 220.09H206.05V221.86H207.73V220.09ZM209.86 220.09H208.18V221.86H209.86V220.09ZM186 250.22H186.35V220.15H186V250.22ZM184.22 250.22H184.67V220.15H184.22V250.22ZM185.11 250.22H185.55V220.15H185.11V250.22ZM212.7 250.22H213.23V220.15H212.7V250.22ZM214.48 250.22H215V220.15H214.56L214.48 250.22ZM213.59 250.22H214.03V220.15H213.59V250.22Z" fill="#BD9D7B" fill-opacity="0.2"/>
<path fill-rule="evenodd" clip-rule="evenodd" d="M471.12 296.18H472.9L459.5 270.27C452.554 263.617 443.395 259.766 433.782 259.456C424.169 259.146 414.78 262.399 407.42 268.59L393.14 296.18H395.71V302.48H362V296.18H366.43L394.2 242.51V234.43H400.15L409.99 206.22V205.59H410.17L412.92 197.59H411.86V190.14H414.96V188.72H410.35V180.64H417.35C422.58 139.64 425.07 69.21 425.87 46.64H425.69V44.86H425.95L426.04 40.51H424.8V33.3H428V24.3H431.72V11.65H432.96V0H434.38V11.62H435.71V24.31H439.35V33.31H442.63V40.58H441.27L441.45 44.93H441.63V46.71H441.54C441.98 59.39 442.87 87.43 444.65 116.89L444.73 117.15L444.65 117.24C445.71 135.07 447.04 153.24 448.65 168.88C449.09 173.13 449.65 176.95 449.98 180.67H457.07V188.75H452.46V190.17H455.46V197.62H454.75L457.5 205.62L467.5 234.46H470.6V242L471.22 241.74L499.43 296.21H504.76V302.51H471.12V296.18ZM402.63 232.57L411.63 227.33L406.4 222.28L402.63 232.57ZM407.69 218.11L415.69 212.87L411.17 208.35L407.69 218.11ZM412.39 204.8L418.25 201.07L414.7 198.07L412.39 204.8ZM452.85 197.61H452.58L449.21 200.8L455.15 204.26L452.85 197.61ZM456.66 208.44L452.49 212.69L459.68 217.22L456.66 208.44ZM461.36 221.92L455.69 227.33L465.18 232.83L461.36 221.92ZM432.71 40.57L430.58 42.35L428.45 40.57H432.71ZM429.96 42.97L427.47 44.92L427.65 40.92L429.96 42.97ZM428.63 44.92L430.4 43.41L432 44.92H428.63ZM431.11 42.92L432.88 41.5V44.5L431.11 42.92ZM432.88 46.92L430.27 49.62L427.52 46.7H432.93L432.88 46.92ZM429.51 50.38L427.29 52.78L427.38 47.99L429.51 50.38ZM427.27 53.88L430.11 50.95L432.69 53.88H427.27ZM430.73 50.25L432.86 48.03V52.55L430.73 50.25ZM432.86 55.66L430.02 58.5L427.45 55.57H432.86V55.66ZM429.27 59.12L426.96 61.6L427.13 56.54L429.27 59.12ZM426.87 62.84L429.98 59.84L432.55 62.94H426.87V62.84ZM430.6 59.12L432.9 56.81V61.81L430.6 59.12ZM432.9 64.8L429.98 67.63L427.22 64.63H432.9V64.8ZM429.18 68.34L426.6 70.83V70.3L426.78 65.68L429.18 68.34ZM426.78 71.81L429.78 68.96L432.35 71.81H426.78ZM430.42 68.34L432.9 66.04V71.04L430.42 68.34ZM432.9 74.11L429.98 76.68L426.78 73.49H432.73L432.9 73.58V74.11ZM429.18 77.3L426.27 79.79L426.54 74.56L429.18 77.3ZM426.34 80.85L429.8 77.93L432.64 80.85H426.34ZM430.42 77.3L432.9 75.3V79.74L430.42 77.3ZM434.59 73.84L434.86 73.49H440.8L437.8 76.68L434.6 73.93L434.59 73.84ZM432.9 82.63L429.53 85.47L426.6 82.54H432.9V82.63ZM428.82 86.09L425.9 88.57L426.07 83.34L428.82 86.09ZM425.72 89.73L429.44 86.73L432.44 89.92H425.7L425.72 89.73ZM430.15 86.09L432.73 83.78V88.84L430.15 86.09ZM432.64 91.68L429.27 94.61L426.27 91.5H432.66L432.64 91.68ZM428.56 95.23L425.43 98L425.61 92.32L428.56 95.23ZM425.72 98.78L429.18 95.85L432.11 98.78H425.72ZM429.98 95.23L432.64 92.83V95.67L432.55 97.09V98L429.98 95.23ZM425.9 91.5L425.63 92.3L425.72 91.5H425.9ZM432.28 100.5L429.09 103.34L426.27 100.46L432.28 100.5ZM428.27 104L424.9 107L425.17 101L428.27 104ZM425.52 107.82L428.98 104.62L432.26 107.82H425.52ZM429.78 103.91L432.53 101.52L432.44 103.02V105.33L432.35 106.4L429.78 103.91ZM431.73 109.5L428.63 112.07L426.05 109.5H431.73ZM427.73 112.96L424.36 115.71L424.8 109.86L427.73 112.96ZM424.89 116.78L428.53 113.67L431.46 116.78H424.89ZM429.5 112.96L432.25 110.48V111.63L432.08 115.63L429.5 112.96ZM431.99 118.46L428.62 121.3L425.95 118.46H431.99ZM427.74 122L423.83 125.37L424.28 118.45L427.74 122ZM425.17 125.73L428.54 122.89L431.38 125.73H425.17ZM429.51 122L432 120V120.35L431.91 120.8V123.1L431.82 124.52L429.51 122ZM431.2 127.41L428.01 130L425.52 127.43L431.2 127.41ZM427.11 130.87L423.21 134.15L423.74 127.41L427.11 130.87ZM424.37 134.69L427.92 131.69L430.92 134.69H424.37ZM428.89 130.87L431.73 128.39L431.64 129.39V130.09L431.47 133.46L428.89 130.87ZM430.58 136.37L427.2 139.12L424.55 136.37H430.58ZM426.27 139.85L422.63 142.78L423.16 136.48L426.27 139.85ZM423.27 143.67L427.08 140.74L429.75 143.67H423.27ZM427.89 139.94L431.26 137.37C431.17 139.23 431.08 141.27 430.9 143.14L427.89 139.94ZM430.28 145.44L426.94 148L424.37 145.43L430.28 145.44ZM426.02 148.82L421.85 152.1C422.03 149.97 422.21 147.66 422.39 145.44H422.74L426.02 148.82ZM423.09 152.63L426.73 149.63L429.57 152.63H423.09ZM427.71 148.9L430.71 146.51C430.62 148.28 430.54 150.05 430.36 151.74L427.71 148.9ZM428.86 154.31L425.93 156.71L423.71 154.31H428.86ZM424.96 157.51L421.06 160.51C421.32 158.56 421.5 156.44 421.59 154.3H422.03L424.96 157.51ZM421.59 161.68L425.67 158.31L428.95 161.68H421.59ZM426.59 157.6L430.14 154.76C429.96 156.71 429.88 158.84 429.61 160.7L426.59 157.6ZM428.99 163.37L425.09 166.37L422.34 163.37H428.99ZM424.27 167.09L420.45 170.28H420.19C420.36 168.07 420.54 165.76 420.81 163.45L424.27 167.09ZM422.27 170.28L425.11 167.98L427.23 170.28H422.27ZM426.08 167.28L429.45 164.61C429.19 166.48 429.01 168.43 428.83 170.12L426.08 167.28ZM428.39 171.98L424.04 175.53L420.73 172L428.39 171.98ZM423.15 176.24L419.15 179.43C419.33 177.3 419.68 175.09 419.86 172.87L423.15 176.24ZM419.27 180.66L423.79 177.12L426.79 180.31V180.4L426.7 180.66H419.27ZM424.77 176.32L428.23 173.57C427.88 175.52 427.61 177.38 427.23 178.98L424.77 176.32ZM434.89 40.57L437.1 42.35L439.1 40.57H434.89ZM437.73 42.97L439.85 44.66L439.76 41.11L437.73 42.97ZM438.88 44.92L437.27 43.41L435.59 44.92H438.88ZM436.48 42.92L434.53 41.23V44.7L436.48 42.92ZM434.53 46.74L437.46 49.66L439.94 46.83V46.74H434.53ZM438.08 50.37L440.03 52.5L439.94 48.33L438.08 50.37ZM440.08 53.75L437.59 51L434.84 53.93H440.16L440.08 53.75ZM436.8 50.29L434.49 47.89V52.89L436.8 50.29ZM434.67 55.61L437.6 58.54L439.99 55.61H434.67ZM438.22 59.16L440.35 61.29L440.26 56.85L438.22 59.16ZM440.43 62.53L437.69 59.87L435.11 62.97H440.43V62.53ZM436.97 59.16L434.49 56.67V62.26L436.97 59.16ZM434.49 64.66L437.69 67.66L440.43 64.66H434.49ZM438.4 68.38L440.7 70.51L440.52 65.99L438.4 68.38ZM440.7 71.85L437.85 69L435.37 71.85H440.7ZM437.06 68.38L434.49 65.9V71.31L437.06 68.38ZM438.4 77.38L441.06 79.69L440.88 74.81L438.4 77.38ZM441.15 80.84L437.77 78.01L434.85 80.93H441.27L441.15 80.84ZM437.06 77.38L434.49 75.17V79.96L437.06 77.38ZM434.67 82.62L438.13 85.55L441.06 82.62H434.67ZM438.84 86.17L441.5 88.48L441.23 83.77L438.84 86.17ZM441.5 89.63L438.27 86.71L435.27 89.9H441.66L441.5 89.63ZM437.5 86.17L434.57 83.68V89L437.5 86.17ZM434.66 91.58L438.3 94.69L441.4 91.58H434.66ZM439.09 95.31L441.93 97.79L441.67 92.65L439.09 95.31ZM441.93 98.86L438.39 95.93L435.46 98.86H441.93ZM437.68 95.31L434.68 92.65V95.75L434.77 97.17V98.24L437.68 95.31ZM435.37 100.54L438.37 103.38L441.2 100.54H435.37ZM439.27 104.09L442.38 106.84L442.11 101.34L439.27 104.09ZM442.11 107.91L438.65 104.71L435.37 107.91H442.11ZM437.76 104L434.76 101.34L434.85 103.11V105.42L434.94 106.75L437.76 104ZM435.76 109.59L438.87 112.16L441.44 109.59H435.76ZM439.76 113.05L442.76 115.54L442.49 110.21L439.76 113.05ZM442.6 116.87L439.05 113.76L435.95 116.87H442.6ZM438.21 113L435.02 110.34L435.19 111.67L435.28 115.93L438.21 113ZM435.72 118.5L438.92 121.34L441.76 118.5H435.72ZM439.89 122.05L443.53 125.25L443.09 118.86L439.89 122.05ZM442.47 125.78L439.18 122.94L436.34 125.78H442.47ZM438.21 122L435.37 119.69V120.31L435.46 120.76V123.06L435.55 124.75L438.21 122ZM436.52 127.41L439.52 129.98L442.18 127.41H436.52ZM440.52 130.87L444.16 133.87L443.81 127.57L440.52 130.87ZM443.36 134.69L439.81 131.69L436.71 134.69H443.36ZM438.84 130.87L435.73 128.21L435.82 129.37V130.07L435.91 133.8L438.84 130.87ZM437.06 136.37L440.52 139.12L443.01 136.37H437.06ZM441.5 139.83L444.7 142.58L444.25 136.82L441.5 139.83ZM444.25 143.65L440.61 140.72L437.78 143.65H444.25ZM439.64 139.92L436.08 137C436.17 139.22 436.34 141.35 436.43 143.39L439.64 139.92ZM437.33 145.42L440.7 147.99L443.27 145.42H437.33ZM441.68 148.8L445.58 151.9C445.32 149.68 445.14 147.64 445.05 145.42H444.96L441.68 148.8ZM444.61 152.61L440.79 149.61L438.04 152.61H444.61ZM439.9 148.88L436.62 146.22C436.71 148.17 436.89 150.12 436.98 151.99L439.9 148.88ZM438.84 154.29L441.77 156.69L443.98 154.29H438.84ZM442.74 157.49L446.29 160.33C446.11 158.33 445.85 156.33 445.76 154.33H445.67L442.74 157.49ZM446.11 161.66L441.86 158.29L438.75 161.66H446.11ZM440.97 157.58L437.15 154.38C437.24 156.69 437.51 158.91 437.69 161.04L440.97 157.58ZM438.66 163.35L442.39 166.35L445.32 163.35H438.66ZM443.36 167.07L447.27 170.26C447 168.14 446.82 165.92 446.56 163.79L443.36 167.07ZM445.36 170.26L442.69 167.96L440.48 170.26H445.36ZM441.72 167.26L438.08 164.33C438.26 166.33 438.44 168.41 438.79 170.27L441.72 167.26ZM439.27 172L443.62 175.55L446.9 172H439.27ZM444.6 176.26L448.23 179.19C448.06 177.19 447.7 175.19 447.52 173.19L444.6 176.26ZM448.23 180.69L443.8 177.15L440.51 180.61L440.6 180.69H448.23ZM442.82 176.35L439.18 173.35C439.45 175.57 439.8 177.52 440.18 179.21L442.82 176.35ZM413.54 205.62H423.48L419.27 202.05L413.54 205.62ZM423.65 197.62L419.27 200.36L416.16 197.61L423.65 197.62ZM420.37 201.35L426.14 197.62H426.94L425.88 205.62H425.52L420.37 201.35ZM448.15 201.7L443.97 205.6H454.89L448.15 201.7ZM443.62 197.62L448.06 200.19L450.81 197.62H443.62ZM446.99 201.08L440.78 197.62L442.11 205.62L446.99 201.08ZM408.75 219.62H422.5L417 214.21L408.75 219.62ZM424.19 207.29L417 212L412.3 207.29H424.19ZM418.42 213.29L425.34 208.86L423.74 218.71L418.42 213.29ZM451.07 214L445.48 219.59H460.21L451.07 214ZM443.8 207.26L451.07 211.79L455.6 207.26H443.8ZM449.74 213.12L442.47 208.59L443.97 218.09L444.06 218.8L449.74 213.12ZM454.27 228.66L448.41 234.43H463.76L454.27 228.66ZM445.75 221.3L454.18 226.36L459.41 221.3H445.75ZM452.67 227.87L444.77 223.07L446.46 233.81L452.67 227.87ZM403.52 234.43H419.04L413.04 228.66L403.52 234.43ZM421.52 221.3L413.18 226.36L407.86 221.3H421.52ZM414.6 227.87L423.11 222.81L421.34 234.25L414.6 227.87ZM449.73 251.38V254.13C450.35 254.39 450.98 254.66 451.51 254.84L449.73 251.38ZM449.02 253.86V250L447.87 247.78V253.46L449.02 253.86ZM447.02 253.24V246.32L446.31 244.9H445.87V252.79L447.02 253.24ZM445.07 252.53V244.9H444V252.26L445.07 252.53ZM443.2 252.17V244.9H442.05V251.82L443.2 252.17ZM441.2 251.73V244.9H440.05V251.56L441.2 251.73ZM439.34 251.38V244.9H438.27V251.2L439.34 251.38ZM437.48 251.11V244.9H436.32V251L437.48 251.11ZM435.61 251.02V244.9H434.57V250.9L435.61 251.02ZM433.61 250.93V244.93H432.46V250.93H433.61ZM431.66 250.93V244.93H430.59V250.93H431.66ZM429.8 250.93V244.93H428.64V251L429.8 250.93ZM427.85 251.11V244.9H426.69V251.2L427.85 251.11ZM425.98 251.29V244.9H424.83V251.38L425.98 251.29ZM424.12 251.64V244.9H422.96V251.82L424.12 251.64ZM422.26 251.91V244.91H421.27V252.27L422.26 251.91ZM420.26 252.44V244.9H419.46L419.11 245.52V252.79L420.26 252.44ZM418.31 252.97V247L417.25 249.22V253.3L418.31 252.97ZM475.71 294.14L480.33 288.29L470.39 283.85L475.71 294.14ZM482.01 286.33L486.54 280.74H469.54L482.01 286.33ZM488.22 282.43L484.32 287.43L492.75 291.06L488.22 282.43ZM482.63 289.35L477.22 296.18H495.32L494.52 294.58L482.63 289.35ZM467.38 278.08L472.52 274.45L464 271.45L467.38 278.08ZM474.56 273.08L479.35 269.8H465.89L474.56 273.08ZM481.92 270.15L476.69 273.79L485.38 276.9L481.92 270.15ZM474.56 275.21L469.15 279.03H485.27L474.56 275.21ZM464 268.11H479L469.15 264.57L464 268.11ZM461.87 267.41L467.02 263.85L458.41 260.75L461.87 267.41ZM469.15 262.35L474.21 258.89H459.68L469.15 262.35ZM476.33 259.6L471.33 263.14L479.84 266.25L476.33 259.6ZM456.64 257.29H475.18L473.69 254H455.15L456.64 257.29ZM389.74 294.29L385.04 288.29L395.24 283.85L389.74 294.29ZM383.35 286.29L378.92 280.7H395.86L383.35 286.29ZM377.35 282.48L381.27 287.4L373.17 291L377.35 282.48ZM382.77 289.31L388.27 296.14H370.51L371.31 294.46L382.77 289.31ZM398.2 278.13L392.97 274.41L401.66 271.3L398.2 278.13ZM390.87 273.07L386.17 269.79H399.97L390.87 273.07ZM383.77 270.23L388.83 273.78L380.31 276.89L383.77 270.23ZM390.87 275.23L396.37 279.05H380.37L390.87 275.23ZM401.52 268.13H386.52L396.37 264.59L401.52 268.13ZM472.67 252.34H454.27L450.45 244.89H468.99L472.67 252.34ZM403.67 267.52L398.44 263.87L407.31 260.77L403.67 267.52ZM396.4 262.37L391.34 258.91H405.98L396.4 262.37ZM389.21 259.7L394.27 263.16L385.84 266.16L389.21 259.7ZM409.09 257.31H390.56L392.27 254H410.9L409.09 257.31ZM411.57 252.31H393.14L397.04 244.86H415.58L411.57 252.31ZM428.07 202.45H439.69L444.58 234.39H423.12L425.61 218.07L428.07 202.45ZM439.34 200.76H428.36L428.89 197.57H438.89L439.34 200.76ZM416.54 253.55V250.63L414.59 254.35C415.218 254.034 415.87 253.766 416.54 253.55ZM455.31 262.25L454.31 260.38C447.643 256.461 440.044 254.409 432.31 254.44C425.186 254.425 418.173 256.195 411.91 259.59L411.02 261.36C417.79 257.492 425.482 255.532 433.278 255.689C441.074 255.845 448.681 258.113 455.29 262.25H455.31Z" fill="#BD9D7B" fill-opacity="0.2"/>
<path fill-rule="evenodd" clip-rule="evenodd" d="M727.73 263.17V265.83H714.19V280.11H720.05L715.97 281.44V326.78H706.97V281.53L702.8 280.11H708.75V265.83H663.62V280.11H669.56L665.48 281.44V326.78H656.48V281.53L652.48 280.11H658.33V265.83H644.73V263.17H641.09V261.17H658.3V253.5H654.22V250.5C648.64 249.7 642.87 248.73 637.1 247.57V241.01C634.97 240.65 632.75 240.21 630.53 239.68V234.3C628.05 233.86 625.53 233.3 623 232.8V228C664.852 234.966 707.568 234.966 749.42 228V232.8C746.94 233.32 744.42 233.86 741.88 234.3V239.63C739.75 240.16 737.53 240.63 735.32 241.04V247.52C729.73 248.77 723.96 249.83 718.19 250.63V253.47H714.19V261.19H731.31V263.19L727.73 263.17ZM667.73 251.99V253.5H663.65V261.22H682.19V252.7C677.4 252.61 672.61 252.34 667.73 251.99ZM708.81 253.5H704.73V252.08C700.02 252.52 695.15 252.7 690.35 252.79V261.22H708.81V253.5Z" fill="#BD9D7B" fill-opacity="0.2"/>
<path fill-rule="evenodd" clip-rule="evenodd" d="M892.82 328.31V327.11L889.18 325.33V331.45L892.82 328.31ZM812.71 295.31H839.23V303.03H812.71V295.31ZM839.23 304.31V316.11H812.71V304.31H839.23ZM839.23 317.97V339.11H812.71V317.91L839.23 317.97ZM819.45 297.74H823.97V298.74H819.45V297.74ZM834.98 308.11V313.52H830.71V308.11C830.78 307.6 831.038 307.135 831.435 306.807C831.831 306.48 832.336 306.313 832.85 306.34C833.107 306.312 833.366 306.337 833.614 306.411C833.861 306.486 834.091 306.61 834.289 306.775C834.488 306.94 834.651 307.143 834.77 307.372C834.889 307.602 834.96 307.853 834.98 308.11ZM828.23 308.11V313.52H823.97V308.11C823.99 307.853 824.061 307.602 824.18 307.372C824.299 307.143 824.462 306.94 824.661 306.775C824.859 306.61 825.089 306.486 825.336 306.411C825.584 306.337 825.843 306.312 826.1 306.34C826.615 306.303 827.124 306.467 827.521 306.797C827.918 307.127 828.172 307.597 828.23 308.11ZM821.39 308.11V313.52H817.13V308.11C817.15 307.853 817.221 307.602 817.34 307.372C817.459 307.143 817.622 306.94 817.821 306.775C818.019 306.61 818.249 306.486 818.496 306.411C818.744 306.337 819.003 306.312 819.26 306.34C819.775 306.303 820.284 306.467 820.681 306.797C821.078 307.127 821.332 307.597 821.39 308.11ZM828.05 323.9H832.57V324.79H828.05V323.9ZM822.45 324.08H826.98V324.97H822.45V324.08ZM825.65 325.23H830.17V326.23H825.65V325.23ZM828.31 326.92H832.84V327.92H828.31V326.92ZM822.99 326.92H827.51V327.92H822.99V326.92ZM819.53 335.97H823.96V336.97H819.53V335.97ZM817.31 334.82H821.83V335.82H817.31V334.82ZM815.09 333.57H819.62V334.46H815.09V333.57ZM832.3 333.31H836.83V334.31H832.3V333.31ZM829.73 296.66H834.25V297.66H829.73V296.66ZM822.63 299.95H827.16V300.95H822.63V299.95ZM778 364.36H822.9V399.49H778V364.36ZM822.9 401V438.62H778V400.97L822.9 401ZM811.01 428.77H818.64V430.37H811.01V428.77ZM803.82 412.71H811.45V414.31H803.82V412.71ZM794.51 413.07H802.14V414.67H794.51V413.07ZM799.83 415.07H807.46V416.66H799.83V415.07ZM804.27 417.91H811.9V419.5H804.27V417.91ZM795.27 417.91H802.81V419.5H795.27V417.91ZM789.27 433.26H796.9V434.85H789.27V433.26ZM785.64 431.26H793.27V432.85H785.64V431.26ZM782.01 429.11H789.64V430.8H782.01V429.11ZM792.48 386.11V395.24H785.29V386.11C785.411 385.243 785.842 384.449 786.503 383.874C787.163 383.299 788.009 382.983 788.885 382.983C789.761 382.983 790.607 383.299 791.267 383.874C791.928 384.449 792.359 385.243 792.48 386.11ZM815.72 386.11V395.24H808.54V386.11C808.565 385.671 808.678 385.242 808.871 384.848C809.063 384.453 809.333 384.101 809.663 383.811C809.994 383.522 810.379 383.301 810.795 383.162C811.212 383.022 811.652 382.967 812.09 383C812.979 382.952 813.852 383.248 814.528 383.827C815.204 384.407 815.631 385.224 815.72 386.11ZM804.1 386.11V395.24H796.91V386.11C797.031 385.243 797.462 384.449 798.123 383.874C798.783 383.299 799.629 382.983 800.505 382.983C801.381 382.983 802.227 383.299 802.887 383.874C803.548 384.449 803.979 385.243 804.1 386.11ZM789.19 368.5H796.82V370.11H789.19V368.5ZM806.76 366.63H814.39V368.23H806.76V366.63ZM794.6 372.11H802.24V373.79H794.6V372.11ZM778.01 376.37H822.91V377.96H778.01V376.37ZM826.1 277L817.23 284.45H835.51L826.1 277ZM833.73 284.72V294.65H819.09V284.72H833.73ZM824.73 288.53H827.73V285.6H824.73V288.53ZM902.27 320.65L889.76 331.21H915.67L902.27 320.65ZM912.83 331.92V346.02H920.73V407.33H883.59V346.05H892.59V331.95L912.83 331.92ZM900.41 336.71H904.58V332.54H900.41V336.71ZM892.87 349.48H899.17V350.73H892.87V349.48ZM914.82 364.11V371.56H908.88V364.11C908.898 363.746 908.988 363.39 909.146 363.062C909.304 362.734 909.526 362.441 909.799 362.2C910.073 361.96 910.391 361.776 910.737 361.661C911.082 361.546 911.447 361.501 911.81 361.53C912.546 361.49 913.269 361.737 913.828 362.217C914.387 362.698 914.739 363.376 914.81 364.11H914.82ZM905.24 364.11V371.56H899.3V364.11C899.351 363.383 899.686 362.705 900.232 362.223C900.778 361.74 901.492 361.491 902.22 361.53C902.956 361.493 903.677 361.74 904.236 362.22C904.794 362.701 905.147 363.377 905.22 364.11H905.24ZM895.66 364.11V371.56H889.71V364.11C889.804 363.387 890.158 362.724 890.705 362.243C891.253 361.762 891.956 361.496 892.685 361.496C893.414 361.496 894.118 361.762 894.665 362.243C895.212 362.724 895.566 363.387 895.66 364.11ZM904.98 386.02H911.28V387.35H904.98V386.02ZM897.26 386.28H903.56V387.62H897.26V386.28ZM901.69 387.97H908.08V389.39H901.69V387.97ZM905.42 390.37H911.72V391.69H905.39L905.42 390.37ZM897.88 390.37H904.27V391.69H897.88V390.37ZM893 403.05H899.3V404.38H893V403.05ZM890 401.37H896.3V402.7H890V401.37ZM887 399.68H893.3V401.01H887V399.68ZM911 399.32H917.3V400.57H911V399.32ZM907.39 348.01H913.69V349.25H907.39V348.01ZM897.39 352.53H903.69V353.86H897.39V352.53ZM883.55 355.99H920.73V357.76H883.59L883.55 355.99ZM883.55 375.15H920.73V378.88H883.59L883.55 375.15ZM800.55 333.63L785.39 346.32H816.79L800.55 333.63ZM813.39 347.03V363.11H788.75V347.03H813.39ZM798.31 353.03H803.39V348.01H798.33L798.31 353.03ZM824.04 389.03L825.28 388.41V397.91L827.28 397.02V387.53L831.54 385.48V394.98L833.49 393.98V384.49L837.75 382.49V391.98L839.75 390.98V381.48L844.01 379.48V388.97L845.96 387.97V378.48L850.22 376.48V385.97L852.22 385.08V375.51L856.48 373.51V383L858.48 382.11V372.62L862.73 370.49V379.98L864.73 379.1V369.61L868.9 367.61V377.1L870.9 376.1V366.61L875.16 364.61V374.1L877.11 373.1V363.6L881.37 361.6V371.1L882.26 370.74V402.68L823.88 430.68L824.04 389.03ZM889.16 331.36V333.36L887.48 332.56V324.41L883.75 322.63V330.88L882.07 329.99V321.83L878.45 320.11V328.36L876.67 327.47V319.31L873.12 317.54V325.79L871.35 324.9V316.74L867.71 315.05V323.11L866.03 322.32V314.11L862.3 312.33V320.49L860.61 319.69V311.53L856.98 309.76V317.92L855.29 317.12V308.96L851.57 307.18V315.35L849.88 314.55V306.38L846.24 304.61V312.77L844.47 311.98V303.81L840.92 302.04V310.2L840.47 310.02V337.53L882.47 357.67V344.9H891.88V331.41L889.16 331.36Z" fill="#BD9D7B" fill-opacity="0.2"/>
</svg>
